<?xml version="1.0" encoding="utf-8"?>
<!DOCTYPE svg PUBLIC "-//W3C//DTD SVG 1.1//EN" "http://www.w3.org/Graphics/SVG/1.1/DTD/svg11.dtd">
<svg version="1.1" xmlns="http://www.w3.org/2000/svg" xmlns:xlink="http://www.w3.org/1999/xlink" width="32" height="32" viewBox="0 0 32 32">
<path d="M23.375 16v-2.563c2.5-0.25 4.313-2.375 4.313-4.813s-1.813-4.563-4.313-4.813v-3.813h-14.75v3.813c-2.5 0.25-4.313 2.313-4.313 4.813 0 2.438 1.813 4.563 4.313 4.813v2.563c0 3.813 2.938 7 6.75 7.375v2.5h-5.5v2.438h-2.5v3.688h17.25v-3.688h-2.5v-2.438h-5.5v-2.5c3.813-0.375 6.75-3.563 6.75-7.375zM23.375 29.563v1.188h-14.75v-1.188zM20.938 28.313h-9.875v-1.25h9.875zM26.438 8.625c0 1.813-1.313 3.313-3.063 3.563v-7.125c1.75 0.25 3.063 1.688 3.063 3.563zM5.563 8.625c0-1.875 1.313-3.313 3.063-3.563v7.25c-1.75-0.375-3.063-1.875-3.063-3.688zM9.875 16v-14.75h12.25v14.75c0 3.438-2.688 6.125-6.125 6.125s-6.125-2.688-6.125-6.125z"></path>
</svg>
