<?xml version="1.0" encoding="utf-8"?>
<!DOCTYPE svg PUBLIC "-//W3C//DTD SVG 1.1//EN" "http://www.w3.org/Graphics/SVG/1.1/DTD/svg11.dtd">
<svg version="1.1" xmlns="http://www.w3.org/2000/svg" xmlns:xlink="http://www.w3.org/1999/xlink" width="32" height="32" viewBox="0 0 32 32">
<path d="M21.25 21.813c-1.188-0.5-3.938-1.438-5.563-1.938-0.188-0.063-0.188-0.063-0.188-0.625 0-0.5 0.188-1 0.375-1.438 0.25-0.438 0.5-1.25 0.563-1.938 0.25-0.25 0.625-0.875 0.813-2 0.25-0.938 0.125-1.313 0-1.625 0-0.063 0-0.063-0.063-0.125 0-0.25 0.063-1.438 0.188-2.375 0.125-0.625 0-1.938-0.875-3.063-0.563-0.75-1.625-1.625-3.563-1.688h-1.063c-1.875 0.063-2.938 0.938-3.5 1.688-0.875 1.125-1 2.438-0.875 3.063 0.125 0.938 0.188 2.125 0.188 2.375-0.063 0.063-0.063 0.063-0.063 0.125-0.125 0.313-0.25 0.688 0 1.688 0.188 1.063 0.563 1.688 0.813 1.938 0.063 0.688 0.313 1.5 0.563 1.938 0.125 0.313 0.188 0.813 0.188 1.438 0 0.563 0 0.625-0.125 0.625-1.75 0.5-4.5 1.5-5.563 2-0.813 0.313-1 0.938-1 1.5 0 0.625 0 2.25 0 2.625s0.188 1 1 1c0.625 0 5.563 0 7.75 0 0.688 0 1.125 0 1.125 0h0.188c0 0 0.438 0 1.125 0 2.188 0 7.125 0 7.75 0 0.75 0 1-0.625 1-1s0-2 0-2.625c0-0.563-0.375-1.25-1.188-1.563zM21.375 26h-17.813v-2.625c0-0.313 0.063-0.438 0.375-0.563 1-0.438 3.75-1.438 5.438-1.938 0.875-0.25 0.875-1.063 0.875-1.625 0-0.813-0.125-1.375-0.313-1.875-0.188-0.375-0.375-1.063-0.5-1.625v-0.313l-0.25-0.25c-0.063-0.125-0.375-0.5-0.563-1.5-0.125-0.75-0.063-0.938-0.063-1.063 0.063-0.063 0.063-0.125 0.125-0.25v0-0.063c0.125-0.438-0.063-1.938-0.188-2.75-0.063-0.313 0-1.375 0.688-2.25 0.438-0.563 1.25-1.188 2.75-1.313h1c1.188 0.125 2.125 0.563 2.75 1.313 0.688 0.875 0.75 1.938 0.688 2.25-0.125 0.813-0.313 2.313-0.188 2.813v0 0.063c0.063 0.063 0.063 0.125 0.063 0.125v0.063c0.063 0.125 0.125 0.313 0 1.063-0.188 1-0.5 1.375-0.563 1.5l-0.25 0.25v0.313c-0.125 0.563-0.313 1.25-0.5 1.625-0.25 0.5-0.5 1.125-0.5 1.875 0 0.563 0 1.313 0.938 1.625 1.625 0.5 4.313 1.438 5.438 1.875 0.438 0.188 0.563 0.5 0.563 0.625v2.625zM25.563 14.438v-4.188h-1.063v4.188h-4.188v1.063h4.188v4.188h1.063v-4.188h4.188v-1.063z"></path>
</svg>
