<?xml version="1.0" encoding="utf-8"?>
<!DOCTYPE svg PUBLIC "-//W3C//DTD SVG 1.1//EN" "http://www.w3.org/Graphics/SVG/1.1/DTD/svg11.dtd">
<svg version="1.1" xmlns="http://www.w3.org/2000/svg" xmlns:xlink="http://www.w3.org/1999/xlink" width="32" height="32" viewBox="0 0 32 32">
<path d="M14.063 15.375c2.688 0 5.25 1 7.188 2.563h1.938c-1.563-1.563-3.625-2.813-5.813-3.375 2.563-1.25 4.25-3.813 4.25-6.875 0-4.25-3.438-7.688-7.688-7.688-4.188 0-7.688 3.438-7.688 7.688 0 3.063 1.813 5.625 4.25 6.875-5.25 1.438-9.25 6.438-9.25 12.313v3.813h15.375v-1.25h-14.063v-2.563c0-6.375 5.125-11.5 11.5-11.5zM7.688 7.688c0-3.563 2.813-6.375 6.375-6.375 3.625 0 6.438 2.813 6.438 6.375s-2.813 6.375-6.438 6.375c-3.563 0-6.375-2.813-6.375-6.375zM30.75 26.875h-3.875v-3.813h-1.25v3.813h-3.875v1.313h3.875v3.813h1.25v-3.813h3.875z"></path>
</svg>
