<?xml version="1.0" encoding="utf-8"?>
<!DOCTYPE svg PUBLIC "-//W3C//DTD SVG 1.1//EN" "http://www.w3.org/Graphics/SVG/1.1/DTD/svg11.dtd">
<svg version="1.1" xmlns="http://www.w3.org/2000/svg" xmlns:xlink="http://www.w3.org/1999/xlink" width="32" height="32" viewBox="0 0 32 32">
<path d="M27 6h-3c0-1.125-0.875-2-2-2h-2c-1.125 0-2 0.875-2 2h-13c-0.563 0-1 0.438-1 1s0.438 1 1 1h13c0 1.125 0.875 2 2 2h2c1.125 0 2-0.875 2-2h3c0.563 0 1-0.438 1-1s-0.438-1-1-1zM22 8h-2v-2h2zM27 14h-13c0-1.125-0.875-2-2-2h-2c-1.125 0-2 0.875-2 2h-3c-0.563 0-1 0.438-1 1s0.438 1 1 1h3c0 1.125 0.875 2 2 2h2c1.125 0 2-0.875 2-2h13c0.563 0 1-0.438 1-1s-0.438-1-1-1zM12 16h-2v-2h2zM27 22h-7c0-1.125-0.875-2-2-2h-2c-1.125 0-2 0.875-2 2h-9c-0.563 0-1 0.438-1 1s0.438 1 1 1h9c0 1.125 0.875 2 2 2h2c1.125 0 2-0.875 2-2h7c0.563 0 1-0.438 1-1s-0.438-1-1-1zM18 24h-2v-2h2z"></path>
</svg>
