<?xml version="1.0" encoding="utf-8"?>
<!DOCTYPE svg PUBLIC "-//W3C//DTD SVG 1.1//EN" "http://www.w3.org/Graphics/SVG/1.1/DTD/svg11.dtd">
<svg version="1.1" xmlns="http://www.w3.org/2000/svg" xmlns:xlink="http://www.w3.org/1999/xlink" width="32" height="32" viewBox="0 0 32 32">
<path d="M10 8v-3c0-0.563-0.438-1-1-1s-1 0.438-1 1v3c-1.125 0-2 0.875-2 2v2c0 1.125 0.875 2 2 2v13c0 0.563 0.438 1 1 1s1-0.438 1-1v-13c1.125 0 2-0.875 2-2v-2c0-1.125-0.875-2-2-2zM8 10h2v2h-2zM18 18v-13c0-0.563-0.438-1-1-1s-1 0.438-1 1v13c-1.125 0-2 0.875-2 2v2c0 1.125 0.875 2 2 2v3c0 0.563 0.438 1 1 1s1-0.438 1-1v-3c1.125 0 2-0.875 2-2v-2c0-1.125-0.875-2-2-2zM16 20h2v2h-2zM26 12v-7c0-0.563-0.438-1-1-1s-1 0.438-1 1v7c-1.125 0-2 0.875-2 2v2c0 1.125 0.875 2 2 2v9c0 0.563 0.438 1 1 1s1-0.438 1-1v-9c1.125 0 2-0.875 2-2v-2c0-1.125-0.875-2-2-2zM24 14h2v2h-2z"></path>
</svg>
