<?xml version="1.0" encoding="utf-8"?>
<!DOCTYPE svg PUBLIC "-//W3C//DTD SVG 1.1//EN" "http://www.w3.org/Graphics/SVG/1.1/DTD/svg11.dtd">
<svg version="1.1" xmlns="http://www.w3.org/2000/svg" xmlns:xlink="http://www.w3.org/1999/xlink" width="32" height="32" viewBox="0 0 32 32">
<path d="M15.125 4.813c7.625 0.375 15.625 5.688 15.25 12.688-0.25 5.125-5.5 9.625-13.75 9.688-3.5 0.063-5.688-0.563-7.188-1.188-0.125 0-0.188-0.063-0.188-0.125 0.063-0.063 0.125-0.063 0.25 0 3.625 0.875 4.938-0.625 4.313-1.688-0.688-1.25-5.313-1.188-8.625-3.5l0.063-0.063c0 0 0.188-0.5 0.25-0.625s0.125-0.188 0.25-0.188h4c0.125 0 0.188 0.063 0.25 0.188 0.125 0.188 0.438 1 0.438 1s0.25 0.688 0.938 0.75c0.188 0 0.75-0.063 0.938-0.688 0.063-0.188 0.063-0.313 0-0.438 0-0.063 0-0.063 0-0.125-0.063-0.063-0.063-0.063-0.063-0.063-0.063-0.125-4.125-9.25-4.125-9.25-0.063-0.188-0.188-0.313-0.375-0.313-0.063 0-0.125 0-0.188 0.063s-0.063 0.063-0.063 0.125c-0.063 0.063-0.063 0.063-0.063 0.125-0.063 0.063-2.438 5.375-3.563 7.875l-0.188 0.375c-0.375-0.438-0.563-0.75-0.563-0.75-0.75-1-1.438-2.625-1.5-4-0.375-5.688 5.25-10.25 13.5-9.875zM15.375 20.625v-8.688c0-0.688-0.375-1-1.063-1-0.625 0-1 0.313-1 1v8.688c0 0.75 0.375 1 1 1 0.688 0 1.063-0.25 1.063-1zM27.625 20.625v-8.688c0-0.688-0.375-1-1.063-1-0.313 0-0.625 0.063-0.75 0.25-0.125 0.125-0.188 0.25-0.313 0.438l-3 6.75-3-6.75c-0.063-0.188-0.188-0.313-0.25-0.438-0.188-0.188-0.5-0.25-0.813-0.25-0.688 0-1.063 0.313-1.063 1v8.688c0 0.75 0.438 1 1.063 1 0.688 0 1.063-0.25 1.063-1v-4.063l2.063 4.188c0.125 0.313 0.5 0.625 0.875 0.625 0.5 0 0.875-0.313 1.063-0.688l2-4.125v4.063c0 0.75 0.375 1 1.063 1 0.625 0 1.063-0.25 1.063-1zM8.938 18h-2.375c-0.125 0-0.125-0.125-0.125-0.188l1.188-2.75c0-0.063 0-0.063 0.063-0.063 0 0 0-0.063 0.063-0.063s0.125 0.063 0.125 0.063v0.063l1.188 2.75c0.063 0.125 0 0.188-0.125 0.188z"></path>
</svg>
