<?xml version="1.0" encoding="utf-8"?>
<!DOCTYPE svg PUBLIC "-//W3C//DTD SVG 1.1//EN" "http://www.w3.org/Graphics/SVG/1.1/DTD/svg11.dtd">
<svg version="1.1" xmlns="http://www.w3.org/2000/svg" xmlns:xlink="http://www.w3.org/1999/xlink" width="32" height="32" viewBox="0 0 32 32">
<path d="M19.375 20.063c2.938 1.5 6.063 4.125 7.375 7.25-1.625 1.313-1.875 1.438-3.75 3.063-1.875-3.563-4.125-5.5-7.188-6.313-1.813 2.313-4.75 5.063-9.313 6.313-1.063-2.188-1.313-2.813-2-4.438 3.625-0.813 5-2 6.813-5.438-0.188-4.188 0.938-8.313 3.625-9.938 1.375 0.438 3.688 1.813 4.313 2.063-0.063 0.438 0.25 0.875 1.375 1.125 0.813 0.188 2.813 0.5 4.75-1.25 1.188 1.813 2.125 3.563 2.125 3.563s-3.688 3.688-8.063 2.563c-0.063 0.563-0.063 0.75-0.063 1.438zM19.875 9.813c-2.25 0-4.125-1.875-4.125-4.125s1.875-4.063 4.125-4.063c2.25 0 4.125 1.813 4.125 4.063s-1.875 4.125-4.125 4.125z"></path>
</svg>
