<?xml version="1.0" encoding="utf-8"?>
<!DOCTYPE svg PUBLIC "-//W3C//DTD SVG 1.1//EN" "http://www.w3.org/Graphics/SVG/1.1/DTD/svg11.dtd">
<svg version="1.1" xmlns="http://www.w3.org/2000/svg" xmlns:xlink="http://www.w3.org/1999/xlink" width="32" height="32" viewBox="0 0 32 32">
<path d="M16 5.875c-6.5 0-11.75 5.25-11.75 11.75 0 2.938 1.125 5.625 2.875 7.688l-2.75 3.313 0.813 0.688 2.688-3.25c2.125 2 4.938 3.25 8.125 3.25 3.125 0 6-1.25 8.125-3.25l2.625 3.25 0.875-0.688-2.75-3.375c1.75-2.063 2.875-4.75 2.875-7.625 0-6.5-5.25-11.75-11.75-11.75zM16 28.25c-5.875 0-10.688-4.75-10.688-10.625s4.813-10.688 10.688-10.688c5.875 0 10.625 4.813 10.625 10.688s-4.75 10.625-10.625 10.625zM11.188 2.688h-3.188c-2.938 0-5.313 2.375-5.313 5.313v3.188h1.5l7-7zM10.125 3.75l-6.375 6.375v-2.125c0-2.375 1.875-4.25 4.25-4.25h2.125zM24 2.688h-3.188v1.5l7 7h1.5v-3.188c0-2.938-2.375-5.313-5.313-5.313zM28.25 10.125v0l-6.375-6.375h2.125c2.375 0 4.25 1.875 4.25 4.25v2.125zM15.438 17.625h-5.875v1.063h7v-9.625h-1.125z"></path>
</svg>
