<?xml version="1.0" encoding="utf-8"?>
<!DOCTYPE svg PUBLIC "-//W3C//DTD SVG 1.1//EN" "http://www.w3.org/Graphics/SVG/1.1/DTD/svg11.dtd">
<svg version="1.1" xmlns="http://www.w3.org/2000/svg" xmlns:xlink="http://www.w3.org/1999/xlink" width="32" height="32" viewBox="0 0 32 32">
<path d="M1.5 3.188v25.625h28.813v-25.625zM2.563 4.25h2.688v23.5h-2.688zM29.25 27.75h-22.938v-23.5h22.938zM18.063 26.125c5.563 0 10.125-4.5 10.125-10.125s-4.563-10.125-10.125-10.125c-5.625 0-10.188 4.5-10.188 10.125s4.563 10.125 10.188 10.125zM18.063 6.938c5 0 9.063 4.063 9.063 9.063s-4.063 9.063-9.063 9.063c-5.063 0-9.125-4.063-9.125-9.063s4.063-9.063 9.125-9.063zM18.063 19.188c1.75 0 3.188-1.438 3.188-3.188s-1.438-3.188-3.188-3.188c-1.813 0-3.25 1.438-3.25 3.188s1.438 3.188 3.25 3.188zM18.063 13.875c1.125 0 2.125 0.938 2.125 2.125s-1 2.125-2.125 2.125c-1.188 0-2.188-0.938-2.188-2.125s1-2.125 2.188-2.125zM18.563 16c0 0.313-0.25 0.563-0.5 0.563-0.313 0-0.563-0.25-0.563-0.563s0.25-0.563 0.563-0.563c0.25 0 0.5 0.25 0.5 0.563z"></path>
</svg>
