<?xml version="1.0" encoding="utf-8"?>
<!DOCTYPE svg PUBLIC "-//W3C//DTD SVG 1.1//EN" "http://www.w3.org/Graphics/SVG/1.1/DTD/svg11.dtd">
<svg version="1.1" xmlns="http://www.w3.org/2000/svg" xmlns:xlink="http://www.w3.org/1999/xlink" width="32" height="32" viewBox="0 0 32 32">
<path d="M18.625 9.625c-0.688 0.063-1.5 0.125-2.313 0.25-1.188 0.125-2.438 0.375-3.438 0.875-2 0.75-3.375 2.5-3.375 5 0 3.188 2.063 4.813 4.625 4.813 0.875 0 1.563-0.125 2.188-0.313 1.063-0.313 1.875-0.875 2.938-1.938 0.563 0.813 0.75 1.188 1.75 2 0.25 0.125 0.5 0.125 0.75-0.063 0.625-0.5 1.75-1.5 2.375-2 0.25-0.25 0.188-0.563 0-0.813-0.563-0.75-1.125-1.375-1.125-2.875v-4.813c0-2.063 0.125-3.938-1.375-5.313-1.25-1.125-3.125-1.563-4.625-1.563-0.25 0-0.438 0-0.688 0-2.688 0.188-5.625 1.375-6.25 4.75-0.125 0.438 0.188 0.563 0.438 0.625l3 0.375c0.313-0.063 0.5-0.313 0.5-0.563 0.313-1.188 1.25-1.813 2.313-1.938 0.063 0 0.125 0 0.25 0 0.625 0 1.313 0.313 1.688 0.813 0.438 0.688 0.375 1.5 0.375 2.25zM18.625 12.75c0 1.25 0.063 2.188-0.563 3.313-0.375 0.75-1.063 1.188-1.75 1.375-0.063 0-0.25 0.063-0.438 0.063-1.125 0-1.875-0.938-1.875-2.25 0-1.75 1.063-2.563 2.313-2.938 0.688-0.125 1.5-0.188 2.313-0.188zM28.5 27.813c1.313-1.063 1.875-3.125 1.875-4.125v-0.188c0-0.25-0.063-0.438-0.063-0.5-0.313-0.313-2.188-0.625-3.875-0.125-0.438 0.125-0.875 0.375-1.25 0.625-0.313 0.188-0.25 0.438 0.063 0.438 0.313-0.063 0.75-0.125 1.188-0.188 1-0.063 2.188-0.063 2.5 0.313 0.438 0.5-0.438 2.625-0.813 3.563-0.125 0.313 0.125 0.438 0.375 0.188zM1.75 23.688c3.75 3.375 8.688 5.438 14.25 5.438 3.438 0 7.375-0.938 10.438-2.813 0.438-0.25 0.813-0.5 1.188-0.75 0.563-0.438 0.063-1-0.438-0.75-0.25 0.063-0.5 0.188-0.75 0.25-3.375 1.375-6.875 1.938-10.125 1.938-5.188 0-10.188-1.438-14.25-3.75-0.375-0.25-0.625 0.125-0.313 0.438z"></path>
</svg>
