<?xml version="1.0" encoding="utf-8"?>
<!DOCTYPE svg PUBLIC "-//W3C//DTD SVG 1.1//EN" "http://www.w3.org/Graphics/SVG/1.1/DTD/svg11.dtd">
<svg version="1.1" xmlns="http://www.w3.org/2000/svg" xmlns:xlink="http://www.w3.org/1999/xlink" width="32" height="32" viewBox="0 0 32 32">
<path d="M30 24.5l-2.125-4.375-4.75 1.938 0.438 0.938 3.125-1.25c-1.438 4.25-5.375 7.313-10.063 7.563v-19.188c2.125-0.313 3.75-2.063 3.75-4.25 0-2.375-1.875-4.25-4.25-4.25s-4.25 1.875-4.25 4.25c0 2.188 1.625 3.938 3.688 4.25v19.188c-4.625-0.25-8.5-3.25-10-7.438l2.875 1.125 0.438-0.938-4.75-1.938-2.125 4.375 0.938 0.5 1.5-3.125c1.625 4.938 6.25 8.5 11.688 8.5 5.313 0 9.875-3.438 11.563-8.188l1.375 2.813 0.938-0.5zM12.938 5.875c0-1.75 1.438-3.188 3.188-3.188s3.188 1.438 3.188 3.188c0 1.75-1.438 3.188-3.188 3.188s-3.188-1.438-3.188-3.188z"></path>
</svg>
