<?xml version="1.0" encoding="utf-8"?>
<!DOCTYPE svg PUBLIC "-//W3C//DTD SVG 1.1//EN" "http://www.w3.org/Graphics/SVG/1.1/DTD/svg11.dtd">
<svg version="1.1" xmlns="http://www.w3.org/2000/svg" xmlns:xlink="http://www.w3.org/1999/xlink" width="32" height="32" viewBox="0 0 32 32">
<path d="M1.625 18.938v-3.938c0-0.313 0.25-0.625 0.625-0.625h6.938l-3.063 5.188h-3.875c-0.375 0-0.625-0.25-0.625-0.625zM6.5 26.938l-2.188 1.5c-0.313 0.188-0.5 0.063-0.438-0.313l0.25-2.563c0.063-0.313 0.375-0.5 0.688-0.313l1.688 1c0.313 0.188 0.313 0.5 0 0.688zM7.063 25.5l-1.75-1c-0.313-0.188-0.375-0.563-0.188-0.875l7.875-13.688c0.188-0.313 0.563-0.438 0.875-0.25l1.75 1c0.313 0.188 0.375 0.563 0.188 0.875l-7.875 13.688c-0.188 0.313-0.563 0.438-0.875 0.25zM13.063 19.563l3-5.188h1.75l2.438 5.188zM22.875 21.125c-0.688-0.313-4.125-8.125-5-10.188s-3.5-7.438-2.625-7.875c0.625-0.313 2.75 3.938 4.438 6.5 1.625 2.563 5 9.188 5.438 9.938 0.375 0.75-0.438 1.375-0.875 1.563-0.438 0.25-0.688 0.438-1.375 0.063zM25.063 24.75l-1-1.625c-0.188-0.375-0.125-0.75 0.25-0.938l1-0.5c0.313-0.188 0.75-0.063 0.938 0.313l0.813 1.563c0.188 0.313 0.063 0.813-0.313 1l-0.688 0.375c-0.313 0.25-0.75 0.125-1-0.188zM28.875 28.938c-0.25-0.688-1.875-0.688-2.625-1.75-0.688-1-0.125-1.563 0.188-1.813 2.938-1.625 2.438 3.563 2.438 3.563zM30.375 18.938c0 0.375-0.25 0.625-0.625 0.625h-3.438c-0.063-0.188-0.125-0.375-0.25-0.563-0.063-0.188-0.313-0.625-0.625-1.188-0.438-0.875-1.125-2.125-1.813-3.438h6.125c0.375 0 0.625 0.313 0.625 0.625v3.938z"></path>
</svg>
