<?xml version="1.0" encoding="utf-8"?>
<!DOCTYPE svg PUBLIC "-//W3C//DTD SVG 1.1//EN" "http://www.w3.org/Graphics/SVG/1.1/DTD/svg11.dtd">
<svg version="1.1" xmlns="http://www.w3.org/2000/svg" xmlns:xlink="http://www.w3.org/1999/xlink" width="32" height="32" viewBox="0 0 32 32">
<path d="M17.5 3.813c1-1.25 2.75-2.125 4.188-2.188 0.188 1.688-0.5 3.375-1.5 4.563-1 1.25-2.625 2.188-4.25 2.063-0.188-1.688 0.625-3.375 1.563-4.438zM25.688 26.813c-1.188 1.75-2.438 3.5-4.375 3.563-1.938 0-2.563-1.188-4.75-1.188s-2.875 1.125-4.688 1.188c-1.875 0.125-3.313-1.875-4.563-3.625-2.438-3.563-4.313-10.125-1.813-14.5 1.25-2.188 3.5-3.563 5.938-3.625 1.875 0 3.625 1.25 4.75 1.25s3.25-1.563 5.5-1.313c0.938 0.063 3.563 0.375 5.25 2.875-0.125 0.063-3.125 1.813-3.125 5.438 0.063 4.375 3.813 5.813 3.875 5.875-0.063 0.063-0.625 2.063-2 4.063z"></path>
</svg>
