<?xml version="1.0" encoding="utf-8"?>
<!DOCTYPE svg PUBLIC "-//W3C//DTD SVG 1.1//EN" "http://www.w3.org/Graphics/SVG/1.1/DTD/svg11.dtd">
<svg version="1.1" xmlns="http://www.w3.org/2000/svg" xmlns:xlink="http://www.w3.org/1999/xlink" width="32" height="32" viewBox="0 0 32 32">
<path d="M24.938 7.563l3-3v2.5h1.063v-4.313h-4.25v1.063h2.438l-3 3c-2.688-2.563-6.25-4.063-10.25-4.063-4.375 0-8.563 1.875-11.438 5.125l0.813 0.688c0.125-0.063 0.188-0.188 0.313-0.313l9.563 9.625-3.563 3.563h-2.688l-3.75 3.75h3.438v3.375l3.688-3.688v-2.688l3.625-3.563 9.5 9.563c-0.063 0.063-0.188 0.188-0.313 0.313l0.688 0.75c3.313-2.875 5.188-7 5.188-11.375 0.063-4-1.5-7.625-4.063-10.313zM9.25 24.375l-1.563 1.625v-1.938h-1.875l1.563-1.625h1.938v1.938zM4.375 7.5c2.563-2.375 5.938-3.688 9.563-3.688 3.688 0 7 1.438 9.5 3.688l-9.5 9.563zM24.188 8.313c2.375 2.5 3.75 5.875 3.75 9.563 0 3.563-1.313 6.938-3.75 9.563l-9.5-9.563z"></path>
</svg>
