<?xml version="1.0" encoding="utf-8"?>
<!DOCTYPE svg PUBLIC "-//W3C//DTD SVG 1.1//EN" "http://www.w3.org/Graphics/SVG/1.1/DTD/svg11.dtd">
<svg version="1.1" xmlns="http://www.w3.org/2000/svg" xmlns:xlink="http://www.w3.org/1999/xlink" width="32" height="32" viewBox="0 0 32 32">
<path d="M30 4h-28c-1.125 0-2 0.875-2 2v4h32v-4c0-1.125-0.875-2-2-2zM2 30c0 1.125 0.875 2 2 2h24c1.125 0 2-0.875 2-2v-18h-28zM12 16h8c1.125 0 2 0.875 2 2s-0.875 2-2 2h-8c-1.125 0-2-0.875-2-2s0.875-2 2-2z"></path>
</svg>
