<?xml version="1.0" encoding="utf-8"?>
<!DOCTYPE svg PUBLIC "-//W3C//DTD SVG 1.1//EN" "http://www.w3.org/Graphics/SVG/1.1/DTD/svg11.dtd">
<svg version="1.1" xmlns="http://www.w3.org/2000/svg" xmlns:xlink="http://www.w3.org/1999/xlink" width="32" height="32" viewBox="0 0 32 32">
<path d="M4.313 15.688l6 6c0.375 0.438 1 0.438 1.375 0 0.438-0.375 0.438-1 0-1.375l-4.25-4.313h14.563c4 0 6 3.688 6 7 0 0.563 0.438 1 1 1s1-0.438 1-1c0-4.438-2-9-8-9h-14.563l4.25-4.313c0.438-0.375 0.438-1 0-1.375-0.375-0.438-1-0.438-1.375 0l-6 6c-0.438 0.375-0.438 1 0 1.375z"></path>
</svg>
