<?xml version="1.0" encoding="utf-8"?>
<!DOCTYPE svg PUBLIC "-//W3C//DTD SVG 1.1//EN" "http://www.w3.org/Graphics/SVG/1.1/DTD/svg11.dtd">
<svg version="1.1" xmlns="http://www.w3.org/2000/svg" xmlns:xlink="http://www.w3.org/1999/xlink" width="32" height="32" viewBox="0 0 32 32">
<path d="M21.688 16.313l-6.5-6.5c-0.375-0.375-1-0.375-1.375 0s-0.375 1 0 1.375l5.75 5.813-5.75 5.813c-0.375 0.375-0.375 1 0 1.375s1 0.375 1.375 0l6.5-6.5c0.188-0.188 0.313-0.438 0.313-0.688s-0.125-0.5-0.313-0.688zM17.063 2.125c-8.25 0-14.938 6.688-14.938 14.938s6.688 14.938 14.938 14.938c8.25 0 14.938-6.688 14.938-14.938s-6.688-14.938-14.938-14.938zM17.063 30c-7.125 0-12.938-5.813-12.938-12.938s5.813-12.938 12.938-12.938c7.125 0 12.938 5.813 12.938 12.938s-5.813 12.938-12.938 12.938z"></path>
</svg>
