<?xml version="1.0" encoding="utf-8"?>
<!DOCTYPE svg PUBLIC "-//W3C//DTD SVG 1.1//EN" "http://www.w3.org/Graphics/SVG/1.1/DTD/svg11.dtd">
<svg version="1.1" xmlns="http://www.w3.org/2000/svg" xmlns:xlink="http://www.w3.org/1999/xlink" width="32" height="32" viewBox="0 0 32 32">
<path d="M17 4c-0.563 0-1 0.438-1 1v19.563l-4.313-4.25c-0.375-0.438-1-0.438-1.375 0-0.438 0.375-0.438 1 0 1.375l6 6c0 0 0 0 0 0 0.063 0.125 0.188 0.188 0.313 0.25 0.25 0.063 0.5 0.063 0.75 0 0.125-0.063 0.25-0.125 0.313-0.25l6-6c0.438-0.375 0.438-1 0-1.375-0.375-0.438-1-0.438-1.375 0l-4.313 4.25v-19.563c0-0.563-0.438-1-1-1z"></path>
</svg>
