<?xml version="1.0" encoding="utf-8"?>
<!DOCTYPE svg PUBLIC "-//W3C//DTD SVG 1.1//EN" "http://www.w3.org/Graphics/SVG/1.1/DTD/svg11.dtd">
<svg version="1.1" xmlns="http://www.w3.org/2000/svg" xmlns:xlink="http://www.w3.org/1999/xlink" width="32" height="32" viewBox="0 0 32 32">
<path d="M6.188 6.188c-5.688 5.688-5.688 14.875 0 20.563s14.875 5.688 20.563 0c5.688-5.688 5.688-14.875 0-20.563s-14.875-5.688-20.563 0zM23.688 10.625l-10.688 10.688h5.875c0.563 0 1 0.438 1 1 0 0.5-0.438 0.938-1 0.938h-8.188c-0.125 0-0.25 0-0.375-0.063s-0.25-0.125-0.313-0.188c0 0 0 0 0 0s0 0 0 0c-0.125-0.125-0.188-0.188-0.25-0.313 0-0.125-0.063-0.25-0.063-0.375 0 0 0 0 0 0v-8.25c0-0.5 0.438-0.938 1-0.938 0.5 0 0.938 0.438 0.938 0.938v5.875l10.688-10.688c0.375-0.375 1-0.375 1.375 0s0.375 1 0 1.375z"></path>
</svg>
