<?xml version="1.0" encoding="utf-8"?>
<!DOCTYPE svg PUBLIC "-//W3C//DTD SVG 1.1//EN" "http://www.w3.org/Graphics/SVG/1.1/DTD/svg11.dtd">
<svg version="1.1" xmlns="http://www.w3.org/2000/svg" xmlns:xlink="http://www.w3.org/1999/xlink" width="32" height="32" viewBox="0 0 32 32">
<path d="M17.75 9.313c-0.188-0.188-0.438-0.313-0.688-0.313-0.313 0-0.563 0.125-0.75 0.313l-6.688 5.875c-0.375 0.438-0.375 1.063 0 1.438s1 0.375 1.438 0l6-5.313 5.938 5.313c0.438 0.375 1.063 0.375 1.438 0s0.375-1 0-1.438zM17.75 16.438c-0.188-0.188-0.438-0.25-0.688-0.25-0.313 0-0.563 0.063-0.75 0.25l-6.688 5.938c-0.375 0.375-0.375 1.063 0 1.438s1 0.375 1.438 0l6-5.313 5.938 5.313c0.438 0.375 1.063 0.375 1.438 0s0.375-1.063 0-1.438zM17.063 2.125c-8.25 0-14.938 6.688-14.938 14.938s6.688 14.938 14.938 14.938c8.25 0 14.938-6.688 14.938-14.938s-6.688-14.938-14.938-14.938zM17.063 30c-7.125 0-12.938-5.813-12.938-12.938s5.813-12.938 12.938-12.938c7.125 0 12.938 5.813 12.938 12.938s-5.813 12.938-12.938 12.938z"></path>
</svg>
