<?xml version="1.0" encoding="utf-8"?>
<!DOCTYPE svg PUBLIC "-//W3C//DTD SVG 1.1//EN" "http://www.w3.org/Graphics/SVG/1.1/DTD/svg11.dtd">
<svg version="1.1" xmlns="http://www.w3.org/2000/svg" xmlns:xlink="http://www.w3.org/1999/xlink" width="32" height="32" viewBox="0 0 32 32">
<path d="M17 2c-8.313 0-15 6.688-15 15s6.688 15 15 15c8.313 0 15-6.688 15-15s-6.688-15-15-15zM20.188 22.813c0.375 0.375 0.375 1 0 1.375s-1 0.375-1.375 0l-6.5-6.5c-0.188-0.188-0.313-0.438-0.313-0.688s0.125-0.5 0.313-0.688l6.5-6.5c0.375-0.375 1-0.375 1.375 0s0.375 1 0 1.375l-5.75 5.813z"></path>
</svg>
