<?xml version="1.0" encoding="utf-8"?>
<!DOCTYPE svg PUBLIC "-//W3C//DTD SVG 1.1//EN" "http://www.w3.org/Graphics/SVG/1.1/DTD/svg11.dtd">
<svg version="1.1" xmlns="http://www.w3.org/2000/svg" xmlns:xlink="http://www.w3.org/1999/xlink" width="32" height="32" viewBox="0 0 32 32">
<path d="M17.063 2.125c-8.25 0-14.938 6.688-14.938 14.938s6.688 14.938 14.938 14.938c8.25 0 14.938-6.688 14.938-14.938s-6.688-14.938-14.938-14.938zM24.375 18.813l-6.688 5.875c-0.188 0.188-0.438 0.313-0.75 0.313-0.25 0-0.5-0.125-0.688-0.313l-6.688-5.875c-0.438-0.438-0.438-1.063 0-1.438 0.375-0.375 1-0.375 1.438 0l5.938 5.313 6-5.313c0.438-0.375 1.063-0.375 1.438 0s0.375 1 0 1.438zM24.375 11.625l-6.688 5.938c-0.188 0.188-0.438 0.25-0.75 0.25-0.25 0-0.5-0.063-0.688-0.25l-6.688-5.938c-0.438-0.375-0.438-1.063 0-1.438 0.375-0.375 1-0.375 1.438 0l5.938 5.313 6-5.313c0.438-0.375 1.063-0.375 1.438 0s0.375 1.063 0 1.438z"></path>
</svg>
