<?xml version="1.0" encoding="utf-8"?>
<!DOCTYPE svg PUBLIC "-//W3C//DTD SVG 1.1//EN" "http://www.w3.org/Graphics/SVG/1.1/DTD/svg11.dtd">
<svg version="1.1" xmlns="http://www.w3.org/2000/svg" xmlns:xlink="http://www.w3.org/1999/xlink" width="32" height="32" viewBox="0 0 32 32">
<path d="M21.938 16.375l-6 5.313-5.938-5.313c-0.438-0.375-1.063-0.375-1.438 0s-0.375 1 0 1.438l6.688 5.875c0.188 0.188 0.438 0.313 0.688 0.313 0.313 0 0.563-0.125 0.75-0.313l6.688-5.875c0.375-0.438 0.375-1.063 0-1.438s-1-0.375-1.438 0zM23.375 9.188c-0.375-0.375-1-0.375-1.438 0l-6 5.313-5.938-5.313c-0.438-0.375-1.063-0.375-1.438 0-0.438 0.375-0.438 1.063 0 1.438l6.688 5.938c0.188 0.188 0.438 0.25 0.688 0.25 0.313 0 0.563-0.063 0.75-0.25l6.688-5.938c0.375-0.375 0.375-1.063 0-1.438z"></path>
</svg>
