<?xml version="1.0" encoding="utf-8"?>
<!DOCTYPE svg PUBLIC "-//W3C//DTD SVG 1.1//EN" "http://www.w3.org/Graphics/SVG/1.1/DTD/svg11.dtd">
<svg version="1.1" xmlns="http://www.w3.org/2000/svg" xmlns:xlink="http://www.w3.org/1999/xlink" width="32" height="32" viewBox="0 0 32 32">
<path d="M30 0h-28c-1.125 0-2 0.875-2 2v28c0 1.125 0.875 2 2 2h28c1.125 0 2-0.875 2-2v-28c0-1.125-0.875-2-2-2zM13 26c0.563 0 1 0.438 1 1s-0.438 1-1 1h-8c-0.125 0-0.25 0-0.375-0.063s-0.25-0.125-0.313-0.25c0 0 0 0 0 0s0 0 0 0c-0.125-0.063-0.188-0.188-0.25-0.313s-0.063-0.25-0.063-0.375c0 0 0 0 0 0v-8c0-0.563 0.438-1 1-1s1 0.438 1 1v5.563l6.313-6.25c0.375-0.438 1-0.438 1.375 0 0.438 0.375 0.438 1 0 1.375l-6.25 6.313zM28 5v8c0 0.563-0.438 1-1 1s-1-0.438-1-1v-5.563l-6.313 6.25c-0.375 0.438-1 0.438-1.375 0-0.438-0.375-0.438-1 0-1.375l6.25-6.313h-5.563c-0.563 0-1-0.438-1-1s0.438-1 1-1h8c0.125 0 0.25 0 0.375 0.063 0.25 0.125 0.438 0.313 0.563 0.563 0.063 0.125 0.063 0.25 0.063 0.375z"></path>
</svg>
