<?xml version="1.0" encoding="utf-8"?>
<!DOCTYPE svg PUBLIC "-//W3C//DTD SVG 1.1//EN" "http://www.w3.org/Graphics/SVG/1.1/DTD/svg11.dtd">
<svg version="1.1" xmlns="http://www.w3.org/2000/svg" xmlns:xlink="http://www.w3.org/1999/xlink" width="32" height="32" viewBox="0 0 32 32">
<path d="M17 2c-8.313 0-15 6.688-15 15s6.688 15 15 15c8.313 0 15-6.688 15-15s-6.688-15-15-15zM23.688 19.688l-6 6c-0.063 0.125-0.188 0.188-0.313 0.25-0.25 0.063-0.5 0.063-0.75 0-0.125-0.063-0.25-0.125-0.313-0.25 0 0 0 0 0 0l-6-6c-0.438-0.375-0.438-1 0-1.375 0.375-0.438 1-0.438 1.375 0l4.313 4.25v-15.563c0-0.563 0.438-1 1-1s1 0.438 1 1v15.563l4.313-4.25c0.375-0.438 1-0.438 1.375 0 0.438 0.375 0.438 1 0 1.375z"></path>
</svg>
