<?xml version="1.0" encoding="utf-8"?>
<!DOCTYPE svg PUBLIC "-//W3C//DTD SVG 1.1//EN" "http://www.w3.org/Graphics/SVG/1.1/DTD/svg11.dtd">
<svg version="1.1" xmlns="http://www.w3.org/2000/svg" xmlns:xlink="http://www.w3.org/1999/xlink" width="32" height="32" viewBox="0 0 32 32">
<path d="M23.688 15.313l-5.875-6.688c-0.438-0.375-1.063-0.375-1.438 0s-0.375 1 0 1.438l5.313 6-5.313 5.938c-0.375 0.438-0.375 1.063 0 1.438s1 0.375 1.438 0l5.875-6.688c0.188-0.188 0.313-0.438 0.313-0.688 0-0.313-0.125-0.563-0.313-0.75zM9.188 23.438c0.375 0.438 1.063 0.438 1.438 0l5.938-6.688c0.188-0.188 0.25-0.438 0.25-0.688 0-0.313-0.063-0.563-0.25-0.75l-5.938-6.688c-0.375-0.375-1.063-0.375-1.438 0s-0.375 1 0 1.438l5.313 6-5.313 5.938c-0.375 0.438-0.375 1.063 0 1.438z"></path>
</svg>
