<?xml version="1.0" encoding="utf-8"?>
<!DOCTYPE svg PUBLIC "-//W3C//DTD SVG 1.1//EN" "http://www.w3.org/Graphics/SVG/1.1/DTD/svg11.dtd">
<svg version="1.1" xmlns="http://www.w3.org/2000/svg" xmlns:xlink="http://www.w3.org/1999/xlink" width="32" height="32" viewBox="0 0 32 32">
<path d="M5 16c-0.563 0-1 0.438-1 1v10c0 0 0 0 0 0 0 0.125 0 0.25 0.063 0.375s0.125 0.25 0.25 0.313c0 0 0 0 0 0s0 0 0 0c0.063 0.125 0.188 0.188 0.313 0.25s0.25 0.063 0.375 0.063h10c0.563 0 1-0.438 1-1s-0.438-1-1-1h-7.563l18.563-18.563v7.563c0 0.563 0.438 1 1 1s1-0.438 1-1v-10c0-0.125 0-0.25-0.063-0.375-0.125-0.25-0.313-0.438-0.563-0.563-0.125-0.063-0.25-0.063-0.375-0.063h-10c-0.563 0-1 0.438-1 1s0.438 1 1 1h7.563l-18.563 18.563v-7.563c0-0.563-0.438-1-1-1z"></path>
</svg>
