<?xml version="1.0" encoding="utf-8"?>
<!DOCTYPE svg PUBLIC "-//W3C//DTD SVG 1.1//EN" "http://www.w3.org/Graphics/SVG/1.1/DTD/svg11.dtd">
<svg version="1.1" xmlns="http://www.w3.org/2000/svg" xmlns:xlink="http://www.w3.org/1999/xlink" width="32" height="32" viewBox="0 0 32 32">
<path d="M29.688 2.313c-0.375-0.438-1-0.438-1.375 0l-8.313 8.25v-5.563c0-0.563-0.438-1-1-1s-1 0.438-1 1v8c0 0 0 0 0 0 0 0.125 0 0.25 0.063 0.375s0.125 0.25 0.25 0.313c0 0 0 0 0 0s0 0 0 0c0.063 0.125 0.188 0.188 0.313 0.25s0.25 0.063 0.375 0.063h8c0.563 0 1-0.438 1-1s-0.438-1-1-1h-5.563l8.25-8.313c0.438-0.375 0.438-1 0-1.375zM2.313 29.688c0.375 0.438 1 0.438 1.375 0l8.313-8.25v5.563c0 0.563 0.438 1 1 1s1-0.438 1-1v-8c0-0.125 0-0.25-0.063-0.375-0.125-0.25-0.313-0.438-0.563-0.563-0.125-0.063-0.25-0.063-0.375-0.063h-8c-0.563 0-1 0.438-1 1s0.438 1 1 1h5.563l-8.25 8.313c-0.438 0.375-0.438 1 0 1.375z"></path>
</svg>
