<?xml version="1.0" encoding="utf-8"?>
<!DOCTYPE svg PUBLIC "-//W3C//DTD SVG 1.1//EN" "http://www.w3.org/Graphics/SVG/1.1/DTD/svg11.dtd">
<svg version="1.1" xmlns="http://www.w3.org/2000/svg" xmlns:xlink="http://www.w3.org/1999/xlink" width="32" height="32" viewBox="0 0 32 32">
<path d="M11.313 16.938l5.313-5.938c0.375-0.438 0.375-1.063 0-1.438-0.375-0.438-1-0.438-1.438 0l-5.875 6.688c-0.188 0.188-0.313 0.438-0.313 0.688 0 0.313 0.125 0.563 0.313 0.75l5.875 6.688c0.438 0.375 1.063 0.375 1.438 0s0.375-1 0-1.438zM23.813 9.563c-0.375-0.438-1.063-0.438-1.438 0l-5.938 6.688c-0.188 0.188-0.25 0.438-0.25 0.688 0 0.313 0.063 0.563 0.25 0.75l5.938 6.688c0.375 0.375 1.063 0.375 1.438 0s0.375-1 0-1.438l-5.313-6 5.313-5.938c0.375-0.438 0.375-1.063 0-1.438zM17 2c-8.313 0-15 6.688-15 15s6.688 15 15 15c8.313 0 15-6.688 15-15s-6.688-15-15-15zM17 30c-7.188 0-13-5.813-13-13s5.813-13 13-13c7.188 0 13 5.813 13 13s-5.813 13-13 13z"></path>
</svg>
