<?xml version="1.0" encoding="utf-8"?>
<!DOCTYPE svg PUBLIC "-//W3C//DTD SVG 1.1//EN" "http://www.w3.org/Graphics/SVG/1.1/DTD/svg11.dtd">
<svg version="1.1" xmlns="http://www.w3.org/2000/svg" xmlns:xlink="http://www.w3.org/1999/xlink" width="32" height="32" viewBox="0 0 32 32">
<path d="M17 2c-8.313 0-15 6.688-15 15s6.688 15 15 15c8.313 0 15-6.688 15-15s-6.688-15-15-15zM24.438 23.813c-0.375 0.375-1 0.375-1.438 0l-5.938-5.313-6 5.313c-0.438 0.375-1.063 0.375-1.438 0s-0.375-1.063 0-1.438l6.688-5.938c0.188-0.188 0.438-0.25 0.75-0.25 0.25 0 0.5 0.063 0.688 0.25l6.688 5.938c0.438 0.375 0.438 1.063 0 1.438zM24.438 16.625c-0.375 0.375-1 0.375-1.438 0l-5.938-5.313-6 5.313c-0.438 0.375-1.063 0.375-1.438 0s-0.375-1 0-1.438l6.688-5.875c0.188-0.188 0.438-0.313 0.75-0.313 0.25 0 0.5 0.125 0.688 0.313l6.688 5.875c0.438 0.438 0.438 1.063 0 1.438z"></path>
</svg>
