<?xml version="1.0" encoding="utf-8"?>
<!DOCTYPE svg PUBLIC "-//W3C//DTD SVG 1.1//EN" "http://www.w3.org/Graphics/SVG/1.1/DTD/svg11.dtd">
<svg version="1.1" xmlns="http://www.w3.org/2000/svg" xmlns:xlink="http://www.w3.org/1999/xlink" width="32" height="32" viewBox="0 0 32 32">
<path d="M17 2c-8.313 0-15 6.688-15 15s6.688 15 15 15c8.313 0 15-6.688 15-15s-6.688-15-15-15zM28 17c0 0.563-0.438 1-1 1h-15.563l4.25 4.313c0.438 0.375 0.438 1 0 1.375-0.375 0.438-1 0.438-1.375 0l-6-6c0 0 0 0 0 0-0.125-0.063-0.188-0.188-0.25-0.313s-0.063-0.25-0.063-0.375c0 0 0 0 0 0 0-0.125 0-0.25 0.063-0.375s0.125-0.25 0.25-0.313c0 0 0 0 0 0l6-6c0.375-0.438 1-0.438 1.375 0 0.438 0.375 0.438 1 0 1.375l-4.25 4.313h15.563c0.563 0 1 0.438 1 1z"></path>
</svg>
